<?xml version="1.0" standalone="no"?>
<!DOCTYPE svg PUBLIC "-//W3C//DTD SVG 20010904//EN"
 "http://www.w3.org/TR/2001/REC-SVG-20010904/DTD/svg10.dtd">
<svg version="1.0" xmlns="http://www.w3.org/2000/svg"
 width="431.000000pt" height="431.000000pt" viewBox="0 0 431.000000 431.000000"
 preserveAspectRatio="xMidYMid meet">
<metadata>
Created by potrace 1.14, written by Peter Selinger 2001-2017
</metadata>
<g transform="translate(0.000000,431.000000) scale(0.100000,-0.100000)"
fill="#000000" stroke="none">
<path d="M567 3474 c-1 -1 -24 -4 -52 -7 -168 -18 -332 -151 -398 -325 -22
-57 -22 -57 -25 -985 -3 -1021 -5 -988 59 -1107 62 -116 156 -191 305 -243 54
-19 140 -51 189 -70 50 -19 295 -112 545 -206 250 -95 462 -176 471 -181 39
-21 96 -30 127 -19 28 9 62 58 62 87 0 6 -24 89 -53 186 -30 97 -51 176 -48
177 3 0 467 2 1031 4 892 2 1031 4 1071 18 166 55 284 172 335 331 l23 71 1
915 c0 782 -2 923 -15 973 -46 179 -182 318 -356 364 -59 15 -193 17 -1667 17
-882 1 -1604 0 -1605 0z m3253 -262 c64 -33 105 -76 131 -136 l22 -51 0 -885
c0 -630 -4 -897 -12 -926 -18 -65 -72 -128 -138 -161 l-58 -28 -1616 0 -1616
0 -58 30 c-68 35 -111 84 -134 154 -14 44 -16 141 -15 924 0 700 3 883 14 921
19 68 99 149 166 169 42 12 279 14 1659 13 l1610 -1 45 -23z"/>
<path d="M2035 2985 c-153 -27 -268 -83 -376 -183 -102 -95 -188 -236 -215
-352 -4 -19 -9 -42 -11 -50 -2 -8 -6 -55 -8 -105 -8 -187 57 -374 177 -511 24
-27 75 -87 113 -134 38 -47 72 -87 75 -90 3 -3 37 -43 75 -90 86 -105 97 -115
163 -147 119 -57 254 -28 346 75 18 20 115 136 215 257 193 233 231 295 267
430 20 74 25 228 11 320 -12 71 -61 188 -113 266 -155 233 -448 361 -719 314z
m-235 -566 c169 -34 296 -160 308 -305 4 -50 2 -56 -29 -87 -26 -26 -51 -38
-107 -52 -211 -51 -375 42 -461 262 -37 95 -34 144 12 173 44 28 165 32 277 9z
m963 -6 c34 -17 56 -65 50 -107 -8 -58 -81 -193 -131 -243 -75 -76 -127 -97
-242 -98 -109 0 -183 20 -225 63 -25 25 -27 32 -22 83 13 143 121 255 287 298
92 24 242 26 283 4z"/>
<path d="M895 2938 c-148 -154 -255 -375 -289 -598 -18 -112 -13 -314 9 -415
43 -202 127 -369 263 -526 88 -102 128 -119 176 -76 46 41 39 78 -30 152 -129
139 -219 312 -257 499 -19 94 -21 276 -3 366 32 164 113 332 222 460 64 74 74
95 67 133 -7 34 -38 57 -77 57 -23 0 -42 -12 -81 -52z"/>
<path d="M3277 2978 c-24 -19 -38 -64 -28 -90 5 -13 31 -48 57 -78 117 -136
185 -272 230 -460 21 -90 13 -326 -15 -430 -45 -164 -133 -324 -249 -449 -28
-30 -52 -65 -55 -78 -9 -49 46 -102 94 -90 62 16 197 184 278 346 58 116 87
208 110 356 12 77 7 281 -9 365 -39 209 -139 410 -277 558 -61 65 -98 78 -136
50z"/>
<path d="M1280 2789 c-78 -31 -215 -253 -261 -424 -30 -110 -33 -326 -5 -435
38 -153 139 -334 236 -424 53 -49 81 -56 118 -30 51 36 47 93 -10 149 -78 76
-151 211 -183 339 -58 228 -3 468 147 647 73 87 81 118 39 159 -31 32 -42 34
-81 19z"/>
<path d="M2960 2787 c-31 -15 -54 -61 -46 -90 3 -12 25 -42 48 -67 115 -125
186 -306 186 -476 0 -71 -3 -101 -24 -202 -18 -89 -95 -231 -170 -312 -46 -49
-56 -67 -57 -96 -1 -29 5 -42 28 -61 43 -37 78 -26 145 46 68 73 68 74 107
138 158 257 174 600 40 868 -58 117 -178 265 -214 265 -10 0 -29 -6 -43 -13z"/>
</g>
</svg>
